<?xml version="1.0" encoding="utf-8"?>
<!-- Generator: Adobe Illustrator 15.0.0, SVG Export Plug-In . SVG Version: 6.00 Build 0)  -->
<!DOCTYPE svg PUBLIC "-//W3C//DTD SVG 1.1//EN" "http://www.w3.org/Graphics/SVG/1.1/DTD/svg11.dtd">
<svg version="1.1" id="レイヤー_1" xmlns="http://www.w3.org/2000/svg" xmlns:xlink="http://www.w3.org/1999/xlink" x="0px"
	 y="0px" width="29.628px" height="29.627px" viewBox="0 0 29.628 29.627" enable-background="new 0 0 29.628 29.627"
	 xml:space="preserve">
<g>
	<defs>
		<rect id="SVGID_1_" y="0" width="29.628" height="29.628"/>
	</defs>
	<clipPath id="SVGID_2_">
		<use xlink:href="#SVGID_1_"  overflow="visible"/>
	</clipPath>
	<path clip-path="url(#SVGID_2_)" fill="#C63A1B" d="M15.192,5.218c-6.212,0-10.271,3.278-9.98,9.698
		c0,0.886,1.095,2.092,2.444,2.092c0.584,0,1.121-0.176,1.54-0.468l-0.002,0.002c0.344-0.233,0.759-0.368,1.207-0.368
		c1.191,0,2.158,0.966,2.158,2.158c0,0.591-0.245,1.119-0.63,1.508c-0.365,0.366-0.586,0.841-0.586,1.36
		c0,1.153,1.094,2.091,2.444,2.091c5.537,0,11.431-2.665,11.431-9.037C25.219,9.265,20.73,5.218,15.192,5.218 M8.534,15.499
		c-0.894,0-1.619-0.725-1.619-1.619S7.64,12.26,8.534,12.26c0.895,0,1.62,0.725,1.62,1.619S9.429,15.499,8.534,15.499
		 M10.726,11.699c-0.894,0-1.619-0.725-1.619-1.62c0-0.894,0.725-1.619,1.619-1.619s1.619,0.725,1.619,1.619
		C12.345,10.975,11.62,11.699,10.726,11.699 M19.319,8.46c0.894,0,1.618,0.725,1.618,1.619c0,0.895-0.725,1.62-1.618,1.62
		c-0.895,0-1.62-0.725-1.62-1.62C17.699,9.186,18.425,8.46,19.319,8.46 M14.967,21.075c-0.895,0-1.619-0.726-1.619-1.619
		c0-0.895,0.725-1.619,1.619-1.619s1.619,0.725,1.619,1.619C16.586,20.349,15.861,21.075,14.967,21.075 M14.967,10.583
		c-0.895,0-1.619-0.725-1.619-1.619s0.725-1.619,1.619-1.619s1.619,0.725,1.619,1.619S15.861,10.583,14.967,10.583 M19.319,19.695
		c-0.895,0-1.62-0.726-1.62-1.619c0-0.895,0.726-1.619,1.62-1.619c0.894,0,1.618,0.725,1.618,1.619
		C20.938,18.969,20.213,19.695,19.319,19.695 M21.926,15.705c-0.895,0-1.618-0.725-1.618-1.619c0-0.895,0.724-1.619,1.618-1.619
		s1.619,0.724,1.619,1.619C23.545,14.979,22.82,15.705,21.926,15.705"/>
</g>
</svg>
