<?xml version="1.0" encoding="utf-8"?>
<!-- Generator: Adobe Illustrator 15.0.0, SVG Export Plug-In . SVG Version: 6.00 Build 0)  -->
<!DOCTYPE svg PUBLIC "-//W3C//DTD SVG 1.1//EN" "http://www.w3.org/Graphics/SVG/1.1/DTD/svg11.dtd">
<svg version="1.1" id="レイヤー_1" xmlns="http://www.w3.org/2000/svg" xmlns:xlink="http://www.w3.org/1999/xlink" x="0px"
	 y="0px" width="29.628px" height="29.627px" viewBox="0 0 29.628 29.627" enable-background="new 0 0 29.628 29.627"
	 xml:space="preserve">
<g>
	<defs>
		<rect id="SVGID_1_" y="0" width="29.628" height="29.628"/>
	</defs>
	<clipPath id="SVGID_2_">
		<use xlink:href="#SVGID_1_"  overflow="visible"/>
	</clipPath>
	<path clip-path="url(#SVGID_2_)" fill="#DADADA" d="M14.907,5.634c-2.639,0-5.008,1.149-6.655,2.966L5.875,6.158v6.452h6.282
		L9.63,10.014c1.541-1.76,3.949-2.744,6.559-2.282c2.786,0.493,5.055,2.714,5.595,5.492c0.872,4.49-2.543,8.419-6.876,8.419
		c-1.798,0-3.438-0.676-4.679-1.789c-0.374-0.336-0.935-0.342-1.311-0.009c-0.441,0.389-0.455,1.082-0.018,1.476
		c1.555,1.398,3.598,2.264,5.838,2.306c4.852,0.09,9.021-3.876,9.163-8.728C24.05,9.817,19.958,5.634,14.907,5.634"/>
</g>
</svg>
