<?xml version="1.0" encoding="utf-8"?>
<!-- Generator: Adobe Illustrator 15.0.0, SVG Export Plug-In . SVG Version: 6.00 Build 0)  -->
<!DOCTYPE svg PUBLIC "-//W3C//DTD SVG 1.1//EN" "http://www.w3.org/Graphics/SVG/1.1/DTD/svg11.dtd">
<svg version="1.1" id="レイヤー_1" xmlns="http://www.w3.org/2000/svg" xmlns:xlink="http://www.w3.org/1999/xlink" x="0px"
	 y="0px" width="29.628px" height="29.627px" viewBox="0 0 29.628 29.627" enable-background="new 0 0 29.628 29.627"
	 xml:space="preserve">
<g>
	<defs>
		<rect id="SVGID_1_" y="0" width="29.628" height="29.628"/>
	</defs>
	<clipPath id="SVGID_2_">
		<use xlink:href="#SVGID_1_"  overflow="visible"/>
	</clipPath>
	<path clip-path="url(#SVGID_2_)" fill="#5C87F0" d="M25.942,7.359H3.685c-1.018,0-1.842,0.825-1.842,1.842v11.769
		c0,1.018,0.824,1.843,1.842,1.843h22.258c1.018,0,1.843-0.825,1.843-1.843V9.201C27.785,8.184,26.96,7.359,25.942,7.359
		 M15.378,19.165h-2.105v-4.926l-2.783,3.046l-0.019-0.023l-0.019,0.023l-2.556-2.764v4.644H5.79v-7.896h2.106l2.575,2.801
		l2.802-2.801h2.105V19.165z M21.093,19.315l-3.309-4.023h1.917v-4.023h1.392h1.391v4.023h1.918L21.093,19.315z"/>
</g>
</svg>
