<?xml version="1.0" encoding="utf-8"?>
<!-- Generator: Adobe Illustrator 15.0.0, SVG Export Plug-In . SVG Version: 6.00 Build 0)  -->
<!DOCTYPE svg PUBLIC "-//W3C//DTD SVG 1.1//EN" "http://www.w3.org/Graphics/SVG/1.1/DTD/svg11.dtd">
<svg version="1.1" id="レイヤー_1" xmlns="http://www.w3.org/2000/svg" xmlns:xlink="http://www.w3.org/1999/xlink" x="0px"
	 y="0px" width="29.628px" height="29.627px" viewBox="0 0 29.628 29.627" enable-background="new 0 0 29.628 29.627"
	 xml:space="preserve">
<g>
	<defs>
		<rect id="SVGID_1_" y="0" width="29.628" height="29.628"/>
	</defs>
	<clipPath id="SVGID_2_">
		<use xlink:href="#SVGID_1_"  overflow="visible"/>
	</clipPath>
	<path clip-path="url(#SVGID_2_)" fill="#4A4A4A" d="M15.033,12.744H14.04v-0.993c0-0.545-0.441-0.986-0.986-0.986
		c-0.545,0-0.986,0.441-0.986,0.986v0.993h-0.993c-0.545,0-0.986,0.441-0.986,0.986s0.441,0.986,0.986,0.986h0.993v0.994
		c0,0.545,0.441,0.985,0.986,0.985c0.544,0,0.986-0.44,0.986-0.985v-0.994h0.993c0.544,0,0.986-0.441,0.986-0.986
		S15.577,12.744,15.033,12.744"/>
	<path clip-path="url(#SVGID_2_)" fill="#4A4A4A" d="M24.492,23.486l-5.094-5.095c0.98-1.32,1.567-2.952,1.567-4.724
		c0-4.383-3.553-7.937-7.937-7.937c-4.383,0-7.937,3.554-7.937,7.937c0,4.384,3.554,7.938,7.937,7.938
		c1.739,0,3.343-0.565,4.65-1.515l5.104,5.104c0.472,0.471,1.237,0.471,1.709,0C24.964,24.722,24.964,23.958,24.492,23.486
		 M13.029,19.621c-3.282,0-5.953-2.67-5.953-5.953c0-3.282,2.671-5.953,5.953-5.953c3.283,0,5.953,2.671,5.953,5.953
		C18.982,16.951,16.313,19.621,13.029,19.621"/>
</g>
</svg>
