<?xml version="1.0" encoding="utf-8"?>
<!-- Generator: Adobe Illustrator 15.0.0, SVG Export Plug-In . SVG Version: 6.00 Build 0)  -->
<!DOCTYPE svg PUBLIC "-//W3C//DTD SVG 1.1//EN" "http://www.w3.org/Graphics/SVG/1.1/DTD/svg11.dtd">
<svg version="1.1" id="レイヤー_1" xmlns="http://www.w3.org/2000/svg" xmlns:xlink="http://www.w3.org/1999/xlink" x="0px"
	 y="0px" width="29.628px" height="29.627px" viewBox="0 0 29.628 29.627" enable-background="new 0 0 29.628 29.627"
	 xml:space="preserve">
<g>
	<defs>
		<rect id="SVGID_1_" y="0" width="29.628" height="29.628"/>
	</defs>
	<clipPath id="SVGID_2_">
		<use xlink:href="#SVGID_1_"  overflow="visible"/>
	</clipPath>
	<path clip-path="url(#SVGID_2_)" fill="#4A4A4A" d="M21.379,6.189h-5.963h-0.493H8.961c-0.942,0-1.614-0.538-1.614-0.538v4.842
		c0,0,2.017-3.363,4.214-3.363c2.196,0,2.196,0.045,2.196,0.045v13.987c0,0-0.896,1.624-3.003,1.624v0.774h0.762
		c0,0,1.211-0.471,3.407-0.471h0.493c2.197,0,3.407,0.471,3.407,0.471h0.763v-0.774c-2.107,0-3.004-1.624-3.004-1.624V7.175
		c0,0,0-0.045,2.196-0.045s4.215,3.363,4.215,3.363V5.651C22.993,5.651,22.32,6.189,21.379,6.189"/>
</g>
</svg>
