<?xml version="1.0" encoding="utf-8"?>
<!-- Generator: Adobe Illustrator 15.0.0, SVG Export Plug-In . SVG Version: 6.00 Build 0)  -->
<!DOCTYPE svg PUBLIC "-//W3C//DTD SVG 1.1//EN" "http://www.w3.org/Graphics/SVG/1.1/DTD/svg11.dtd">
<svg version="1.1" id="レイヤー_1" xmlns="http://www.w3.org/2000/svg" xmlns:xlink="http://www.w3.org/1999/xlink" x="0px"
	 y="0px" width="29.628px" height="29.627px" viewBox="0 0 29.628 29.627" enable-background="new 0 0 29.628 29.627"
	 xml:space="preserve">
<g>
	<defs>
		<rect id="SVGID_1_" y="0" width="29.628" height="29.628"/>
	</defs>
	<clipPath id="SVGID_2_">
		<use xlink:href="#SVGID_1_"  overflow="visible"/>
	</clipPath>
	<path clip-path="url(#SVGID_2_)" fill="#DADADA" d="M17.102,14.42l5.722-5.722c0.391-0.39,0.391-1.023,0-1.414
		c-0.391-0.39-1.023-0.39-1.414,0l-5.722,5.722L9.964,7.284c-0.39-0.39-1.023-0.39-1.414,0c-0.39,0.391-0.39,1.024,0,1.414
		l5.723,5.722L8.55,20.142c-0.39,0.391-0.39,1.023,0,1.414c0.196,0.195,0.451,0.293,0.707,0.293s0.512-0.098,0.707-0.293
		l5.723-5.723l5.722,5.723c0.195,0.195,0.451,0.293,0.707,0.293s0.511-0.098,0.707-0.293c0.391-0.391,0.391-1.023,0-1.414
		L17.102,14.42z"/>
</g>
</svg>
