<?xml version="1.0" encoding="utf-8"?>
<!-- Generator: Adobe Illustrator 15.0.0, SVG Export Plug-In . SVG Version: 6.00 Build 0)  -->
<!DOCTYPE svg PUBLIC "-//W3C//DTD SVG 1.1//EN" "http://www.w3.org/Graphics/SVG/1.1/DTD/svg11.dtd">
<svg version="1.1" id="レイヤー_1" xmlns="http://www.w3.org/2000/svg" xmlns:xlink="http://www.w3.org/1999/xlink" x="0px"
	 y="0px" width="29.628px" height="29.627px" viewBox="0 0 29.628 29.627" enable-background="new 0 0 29.628 29.627"
	 xml:space="preserve">
<g>
	<defs>
		<rect id="SVGID_1_" y="0" width="29.628" height="29.628"/>
	</defs>
	<clipPath id="SVGID_2_">
		<use xlink:href="#SVGID_1_"  overflow="visible"/>
	</clipPath>
	<path clip-path="url(#SVGID_2_)" fill="#5C87F0" d="M24.396,5.809H5.091c-1.023,0-1.851,0.828-1.851,1.85v14.31
		c0,1.023,0.828,1.852,1.851,1.852h19.306c1.022,0,1.851-0.828,1.851-1.852V7.658C26.247,6.636,25.419,5.809,24.396,5.809
		 M24.765,22.332H4.723V7.296h20.042V22.332z"/>
	<polygon clip-path="url(#SVGID_2_)" fill="#5C87F0" points="23.18,15.834 18.237,10.906 12.065,16.908 9.992,15.37 6.308,18.665 
		6.308,20.795 23.18,20.795 	"/>
	<path clip-path="url(#SVGID_2_)" fill="#5C87F0" d="M8.662,12.992c1.152,0,2.086-0.934,2.086-2.085
		c0-1.153-0.934-2.086-2.086-2.086c-1.152,0-2.086,0.933-2.086,2.086C6.576,12.058,7.51,12.992,8.662,12.992"/>
</g>
</svg>
