<?xml version="1.0" encoding="utf-8"?>
<!-- Generator: Adobe Illustrator 15.0.0, SVG Export Plug-In . SVG Version: 6.00 Build 0)  -->
<!DOCTYPE svg PUBLIC "-//W3C//DTD SVG 1.1//EN" "http://www.w3.org/Graphics/SVG/1.1/DTD/svg11.dtd">
<svg version="1.1" id="レイヤー_1" xmlns="http://www.w3.org/2000/svg" xmlns:xlink="http://www.w3.org/1999/xlink" x="0px"
	 y="0px" width="29.628px" height="29.627px" viewBox="0 0 29.628 29.627" enable-background="new 0 0 29.628 29.627"
	 xml:space="preserve">
<g>
	<defs>
		<rect id="SVGID_1_" y="0" width="29.628" height="29.628"/>
	</defs>
	<clipPath id="SVGID_2_">
		<use xlink:href="#SVGID_1_"  overflow="visible"/>
	</clipPath>
	<path clip-path="url(#SVGID_2_)" fill="#4A4A4A" d="M19.634,5.728H9.145c-2.049,0-3.711,1.661-3.711,3.71v10.489
		c0,2.05,1.662,3.711,3.711,3.711h10.489c2.05,0,3.711-1.661,3.711-3.711V9.438C23.345,7.389,21.684,5.728,19.634,5.728
		 M21.389,20.083c0,0.882-0.716,1.599-1.599,1.599H8.989c-0.882,0-1.598-0.717-1.598-1.599V9.282c0-0.883,0.716-1.597,1.598-1.597
		H19.79c0.883,0,1.599,0.714,1.599,1.597V20.083z"/>
</g>
</svg>
