<?xml version="1.0" encoding="utf-8"?>
<!-- Generator: Adobe Illustrator 15.0.0, SVG Export Plug-In . SVG Version: 6.00 Build 0)  -->
<!DOCTYPE svg PUBLIC "-//W3C//DTD SVG 1.1//EN" "http://www.w3.org/Graphics/SVG/1.1/DTD/svg11.dtd">
<svg version="1.1" id="レイヤー_1" xmlns="http://www.w3.org/2000/svg" xmlns:xlink="http://www.w3.org/1999/xlink" x="0px"
	 y="0px" width="29.628px" height="29.627px" viewBox="0 0 29.628 29.627" enable-background="new 0 0 29.628 29.627"
	 xml:space="preserve">
<g>
	<defs>
		<rect id="SVGID_1_" y="0" width="29.628" height="29.628"/>
	</defs>
	<clipPath id="SVGID_2_">
		<use xlink:href="#SVGID_1_"  overflow="visible"/>
	</clipPath>
	<path clip-path="url(#SVGID_2_)" fill="#4A4A4A" d="M14.633,11.751h-3.958c-0.544,0-0.986,0.441-0.986,0.986
		s0.442,0.986,0.986,0.986h3.958c0.544,0,0.985-0.441,0.985-0.986S15.177,11.751,14.633,11.751"/>
	<path clip-path="url(#SVGID_2_)" fill="#4A4A4A" d="M24.091,22.493l-5.094-5.094c0.981-1.321,1.568-2.952,1.568-4.724
		c0-4.383-3.554-7.937-7.937-7.937s-7.937,3.554-7.937,7.937c0,4.384,3.554,7.938,7.937,7.938c1.74,0,3.343-0.566,4.651-1.515
		l5.103,5.104c0.474,0.471,1.237,0.471,1.709,0C24.563,23.73,24.563,22.964,24.091,22.493 M12.628,18.627
		c-3.282,0-5.953-2.67-5.953-5.953c0-3.282,2.671-5.953,5.953-5.953c3.283,0,5.953,2.671,5.953,5.953
		C18.581,15.958,15.911,18.627,12.628,18.627"/>
</g>
</svg>
